<?xml version="1.0" standalone="no"?>
<!DOCTYPE svg PUBLIC "-//W3C//DTD SVG 20010904//EN"
 "http://www.w3.org/TR/2001/REC-SVG-20010904/DTD/svg10.dtd">
<svg version="1.0" xmlns="http://www.w3.org/2000/svg"
 width="141.732283pt" height="141.732283pt" viewBox="0 0 141.732283 141.732283"
 preserveAspectRatio="xMidYMid meet">
<metadata>
Created by potrace 1.16, written by Peter Selinger 2001-2019
</metadata>
<g transform="translate(0.000000,141.732283) scale(0.035433,-0.035433)"
fill="#000000" stroke="none">
<path d="M1775 3919 c-378 -51 -699 -185 -983 -413 -142 -112 -337 -327 -404
-442 -12 -22 -25 -41 -29 -44 -15 -12 -112 -205 -153 -307 -58 -140 -111 -354
-127 -509 -13 -130 -7 -395 11 -504 16 -96 65 -285 95 -365 33 -90 165 -355
176 -355 5 0 9 -4 9 -10 0 -12 54 -90 128 -183 76 -96 232 -249 248 -243 7 3
11 0 8 -7 -4 -13 124 -112 236 -184 82 -52 286 -149 376 -178 652 -215 1316
-99 1848 323 170 135 367 368 470 557 171 314 246 603 246 947 0 738 -420
1408 -1084 1732 -202 99 -391 156 -596 181 -124 15 -377 18 -475 4z m466 -34
c853 -112 1514 -767 1644 -1631 29 -193 15 -482 -34 -685 -61 -258 -213 -572
-363 -751 -23 -28 -36 -52 -32 -59 4 -7 3 -9 -3 -6 -5 3 -43 -28 -84 -70 -305
-312 -700 -512 -1128 -568 -660 -88 -1351 201 -1751 733 -180 239 -292 488
-358 792 -25 116 -27 142 -26 360 0 216 2 245 27 361 128 601 496 1081 1032
1344 337 165 712 228 1076 180z"/>
<path d="M1743 3343 c-18 -9 -35 -26 -39 -37 -13 -45 -29 -76 -40 -76 -19 0
-25 -31 -13 -67 15 -46 -7 -64 -69 -56 -26 4 -52 1 -66 -7 -20 -10 -28 -9 -50
5 -14 10 -26 21 -26 25 0 4 -11 18 -25 31 -13 13 -25 30 -25 37 0 17 -77 93
-110 109 -64 29 -116 39 -174 31 -35 -5 -65 -4 -77 2 -36 20 -129 -42 -129
-85 0 -7 -16 -29 -36 -49 -32 -32 -35 -41 -30 -70 5 -25 1 -39 -14 -59 -23
-29 -26 -60 -7 -75 9 -7 12 -35 9 -89 -3 -81 -4 -247 -2 -273 3 -28 -13 -115
-23 -127 -16 -22 -45 -14 -67 17 -27 38 -23 74 8 78 33 5 26 51 -10 72 -25 13
-31 13 -55 0 -23 -13 -31 -28 -41 -78 -12 -55 -12 -65 1 -80 8 -9 28 -44 45
-78 45 -89 92 -134 140 -134 33 0 44 7 81 48 39 42 64 93 91 187 4 17 11 65
15 107 4 43 11 80 16 84 11 7 32 -41 48 -112 9 -36 10 -67 3 -105 -7 -39 -6
-64 4 -97 7 -26 10 -52 5 -61 -18 -35 -19 -82 -6 -166 8 -48 12 -107 8 -131
-7 -56 12 -125 48 -171 16 -20 29 -48 29 -63 0 -15 10 -43 23 -62 20 -29 23
-43 19 -96 -4 -59 -3 -63 26 -90 l31 -29 -26 -52 c-35 -69 -44 -191 -19 -240
20 -38 92 -86 142 -96 31 -5 35 -9 29 -28 -4 -12 -9 -72 -12 -134 -5 -104 -4
-116 21 -182 64 -166 183 -293 362 -386 70 -36 74 -37 210 -42 121 -4 149 -2
218 16 108 30 156 56 229 128 75 74 144 193 182 315 23 74 26 100 23 175 -2
48 -6 95 -9 103 -3 11 3 14 21 12 94 -11 213 116 194 207 -3 14 -7 36 -10 49
-2 12 -20 40 -39 60 -33 37 -33 40 -21 75 7 20 29 51 51 69 89 77 88 75 80
126 -14 85 -7 164 20 226 14 31 25 66 25 77 0 11 6 22 14 25 8 3 18 20 22 37
3 18 12 43 20 57 38 73 46 98 34 120 -6 12 -9 33 -5 47 3 14 1 31 -5 38 -14
17 -2 45 21 45 20 0 44 -20 72 -61 15 -20 25 -24 63 -22 60 2 91 31 150 143
42 78 45 88 38 134 -7 53 -39 96 -71 96 -54 0 -86 -71 -35 -78 17 -3 22 -10
22 -32 0 -37 -41 -86 -64 -77 -29 11 -39 59 -40 197 -1 74 -4 140 -8 146 -4 5
-3 26 1 45 4 18 6 50 3 70 -2 21 1 40 7 43 16 10 13 62 -4 76 -9 8 -15 30 -15
57 0 39 -5 49 -35 76 -19 17 -35 38 -35 47 0 39 -107 109 -124 81 -5 -7 -32
-9 -79 -5 -53 5 -84 2 -120 -10 -70 -24 -107 -45 -107 -61 0 -7 -9 -17 -21
-20 -11 -4 -27 -22 -35 -41 -8 -19 -18 -34 -22 -34 -5 0 -15 -11 -22 -25 -7
-14 -23 -31 -35 -39 -33 -22 -92 1 -112 43 -9 17 -19 31 -24 31 -5 0 -17 16
-26 37 -20 41 -65 79 -82 69 -6 -4 -11 -18 -11 -32 0 -21 -4 -24 -21 -19 -16
5 -22 1 -32 -24 -13 -34 -27 -41 -27 -13 0 27 -29 62 -50 62 -11 0 -24 -9 -30
-19 -22 -41 -111 -34 -125 9 -5 17 -91 57 -109 52 -23 -7 -56 9 -56 27 0 15
-22 35 -33 30 -1 0 -17 -8 -34 -16z m41 -38 c7 -20 54 -38 91 -36 38 2 90 -42
81 -70 -3 -11 -9 -28 -12 -39 -8 -27 22 -27 44 0 10 11 38 24 64 29 26 4 55
14 63 21 31 25 55 -42 29 -79 -15 -20 -15 -23 1 -34 15 -12 15 -15 -5 -40 -12
-15 -17 -27 -11 -27 6 0 23 23 37 52 37 73 63 106 90 112 12 3 26 15 29 26 3
11 10 20 14 20 13 0 32 -51 26 -71 -5 -14 -1 -19 14 -19 23 0 41 -27 41 -60 0
-18 4 -21 24 -16 13 3 34 3 45 -2 l21 -7 -21 -34 c-19 -32 -21 -33 -40 -16
-10 10 -19 25 -19 34 0 11 -3 12 -11 4 -8 -8 -2 -19 22 -42 31 -28 32 -32 17
-44 -15 -12 -15 -15 3 -37 23 -31 27 -105 4 -96 -14 5 -14 2 0 -24 8 -16 15
-38 15 -50 0 -17 2 -19 14 -8 8 7 10 15 5 16 -15 6 1 22 22 22 10 0 19 5 19
10 0 16 19 12 74 -14 58 -27 80 -48 96 -90 15 -40 6 -43 -30 -12 -17 14 -38
26 -45 26 -7 0 -32 16 -55 35 -23 19 -47 35 -53 35 -7 -1 0 -7 15 -16 43 -23
53 -49 28 -74 -12 -12 -15 -20 -7 -20 6 -1 0 -8 -16 -16 -26 -14 -47 -12 -47
6 0 4 10 6 23 4 l22 -5 -22 10 c-15 7 -23 20 -24 38 -2 24 -2 25 -6 6 -5 -28
-19 -29 -35 -3 -14 22 -33 26 -44 8 -5 -8 -2 -9 9 -5 13 5 17 1 17 -18 0 -14
-5 -25 -11 -25 -5 0 -7 -5 -4 -11 4 -6 -2 -13 -14 -16 -11 -3 -18 -9 -15 -14
9 -15 -20 -10 -44 7 -12 8 -22 23 -22 32 0 13 5 12 20 -8 l20 -25 -10 33 c-8
29 -6 34 13 42 12 5 16 9 10 9 -7 1 -13 7 -13 15 0 17 -38 66 -49 63 -4 -1
-20 13 -35 31 -33 38 -43 40 -48 10 -2 -14 -14 -25 -33 -31 -16 -6 -33 -15
-37 -21 -5 -7 -12 -5 -20 7 -8 11 -32 21 -57 24 -53 7 -64 29 -28 57 15 12 27
26 27 32 0 6 13 23 30 39 16 16 28 31 25 33 -2 2 6 13 18 23 12 10 16 18 10
19 -7 0 -13 -4 -13 -9 0 -5 -9 -12 -19 -16 -11 -3 -18 -11 -16 -18 3 -7 -6
-20 -19 -29 -21 -16 -29 -16 -62 -4 -26 9 -41 21 -45 37 l-7 24 -1 -26 c-1
-14 -10 -34 -20 -43 -11 -10 -22 -28 -25 -42 -4 -13 -13 -24 -21 -24 -7 0 -23
-13 -35 -30 -12 -16 -17 -30 -12 -30 17 0 22 -30 9 -51 -9 -14 -21 -19 -45
-17 -18 1 -36 6 -38 10 -3 5 0 7 8 6 7 -2 12 4 10 14 -2 10 2 27 8 38 9 17 8
20 -10 20 -22 0 -43 39 -38 70 2 9 -3 25 -11 34 -11 13 -11 20 -3 28 17 17 15
43 -5 59 -14 12 -15 12 -9 0 9 -14 -8 -31 -31 -31 -35 0 -59 72 -27 84 27 10
44 7 44 -9 0 -9 9 -15 25 -15 33 0 32 11 -4 38 -17 12 -29 30 -29 39 0 10 -2
25 -6 34 -5 11 -1 18 13 22 18 4 21 13 21 54 0 51 6 67 30 76 24 9 28 8 34 -8z
m-551 -59 c7 -19 -14 -26 -57 -21 -45 6 -86 -10 -93 -35 -3 -12 -14 -20 -28
-20 -25 0 -49 -24 -60 -58 -5 -17 -11 -21 -27 -16 -19 6 -19 5 -3 -20 10 -14
21 -26 26 -26 5 0 9 -4 9 -10 0 -5 -20 -2 -45 8 -43 16 -45 16 -75 -6 l-30
-23 0 28 c0 18 8 33 21 41 16 10 18 16 9 27 -7 8 -9 23 -4 37 7 22 8 22 21 -9
7 -18 18 -33 23 -33 7 0 7 6 0 19 -20 38 21 100 65 100 18 0 17 -2 -7 -20 -23
-17 -28 -28 -26 -57 l1 -37 4 32 c5 38 31 56 67 47 20 -5 27 0 38 23 11 23 21
29 58 33 94 10 108 10 113 -4z m1630 5 c31 -1 41 -6 55 -31 13 -24 22 -29 40
-25 28 7 61 -10 72 -38 7 -19 9 -19 9 -4 1 11 -13 32 -30 48 -31 29 -31 29 -7
29 44 0 84 -73 58 -105 -9 -11 -9 -15 -1 -15 7 0 18 14 25 31 15 35 32 23 22
-15 -4 -15 1 -31 14 -46 34 -39 19 -78 -15 -40 -22 24 -41 25 -89 5 -44 -19
-45 -13 -5 26 27 26 28 30 11 27 -14 -2 -28 8 -44 32 -13 19 -33 36 -44 38
-12 2 -27 14 -34 27 -15 28 -42 36 -97 29 -41 -4 -60 6 -48 26 3 5 20 8 38 6
18 -2 49 -4 70 -5z m-45 -71 c13 0 20 4 17 10 -3 6 3 10 15 10 12 0 25 -10 32
-25 6 -14 23 -28 37 -31 45 -10 51 -13 58 -30 8 -22 -10 -50 -31 -46 -9 2 -16
-1 -16 -6 0 -5 -10 -22 -22 -37 l-21 -27 -18 23 c-23 29 -25 53 -4 45 9 -3 15
0 15 10 0 12 6 15 21 11 27 -7 20 15 -9 28 -12 5 -20 15 -18 21 3 7 -2 20 -10
31 -14 17 -15 17 -7 -2 5 -11 8 -29 8 -40 -1 -25 -25 -75 -37 -75 -11 0 -10
17 2 25 17 11 11 43 -12 59 -28 20 -83 22 -71 4 4 -7 8 -17 8 -23 0 -5 8 -9
18 -9 9 1 14 -2 11 -7 -3 -5 0 -18 6 -28 16 -30 2 -98 -21 -104 -28 -7 -23
-24 7 -24 37 0 50 -17 38 -50 -6 -17 -18 -29 -32 -31 -21 -3 -26 8 -25 56 1
17 -16 15 -23 -3 -9 -21 -24 -19 -24 4 0 11 -9 23 -20 26 -24 8 -26 28 -4 49
18 19 34 21 34 5 0 -8 4 -8 13 0 10 8 17 7 25 -1 9 -9 12 -7 12 9 0 32 -22 44
-87 47 -73 3 -87 10 -73 37 13 24 31 25 24 2 -3 -10 2 -7 11 7 l16 25 -5 -25
c-4 -22 -4 -23 8 -7 7 9 22 17 32 17 16 0 16 2 4 10 -12 7 -10 11 10 19 18 7
20 10 8 10 -22 1 -23 9 -2 32 12 14 22 15 47 8 18 -5 42 -9 55 -9z m-1533 -50
c3 -5 -2 -11 -12 -11 -10 -1 -4 -4 12 -8 17 -4 33 -3 36 2 4 5 12 1 18 -9 6
-12 11 -14 11 -5 0 18 30 -6 30 -25 0 -14 -71 -28 -106 -20 -29 6 -69 -27 -60
-50 6 -16 9 -16 16 -4 8 12 10 10 11 -10 1 -16 3 -19 6 -8 7 28 35 31 55 6 17
-22 17 -24 -7 -41 -14 -10 -22 -24 -18 -32 3 -9 -1 -15 -10 -15 -8 0 -17 7
-21 15 -10 26 -21 16 -21 -17 0 -26 -4 -33 -19 -33 -10 0 -25 9 -32 21 -17 25
0 54 34 57 26 2 29 15 5 25 -10 4 -19 16 -20 27 -1 11 -4 30 -8 42 -6 17 0 30
23 53 17 16 28 30 26 30 -3 0 -2 5 1 10 3 6 15 10 25 10 10 0 22 -4 25 -10z
m-174 -193 c14 -17 31 -47 38 -64 7 -18 17 -33 22 -33 5 0 9 -9 9 -19 0 -11
12 -34 26 -51 50 -59 14 -43 -48 22 -35 35 -78 71 -95 79 -18 8 -33 18 -33 23
0 12 40 76 48 76 4 0 18 -15 33 -33z m287 -57 c12 -16 22 -34 22 -40 0 -9 -21
-15 -42 -11 -4 0 -11 -13 -15 -30 -11 -40 -24 -41 -37 -2 -16 46 -42 71 -58
54 -11 -10 -10 -12 2 -9 20 4 14 -33 -8 -49 -23 -19 -29 -16 -40 16 -15 43 12
66 70 57 53 -8 64 -7 60 6 -4 15 6 38 16 38 4 0 18 -13 30 -30z m1231 21 c10
-6 10 -13 3 -28 -11 -19 -9 -20 39 -10 80 16 117 -11 89 -64 -17 -31 -44 -20
-55 24 -6 23 -5 26 11 21 15 -5 16 -4 5 4 -21 15 -57 -12 -65 -48 -3 -17 -9
-30 -14 -30 -13 0 -33 50 -26 62 4 7 2 8 -5 4 -6 -4 -9 -16 -6 -27 7 -20 -2
-24 -24 -10 -7 5 -11 13 -7 19 3 6 1 12 -5 14 -8 3 -3 17 12 41 26 40 28 41
48 28z m346 -10 c3 -5 -10 -57 -30 -115 -26 -77 -35 -122 -35 -170 0 -37 -4
-66 -8 -66 -5 0 -19 11 -32 25 -19 20 -23 35 -21 72 2 51 42 160 73 206 33 47
11 29 -26 -21 -40 -55 -86 -143 -86 -163 1 -8 7 0 15 16 l13 30 1 -46 c1 -40
-3 -49 -25 -64 -21 -14 -28 -14 -41 -3 -9 7 -26 13 -37 13 -23 0 -31 23 -22
61 8 29 131 162 190 205 40 30 61 36 71 20z m-1870 -82 c58 -53 119 -179 87
-179 -5 0 -14 12 -21 26 -6 15 -15 24 -18 20 -8 -7 -33 13 -33 27 0 6 7 2 15
-9 8 -10 15 -14 15 -8 0 15 -58 69 -67 61 -3 -4 -1 -7 5 -7 7 0 12 -5 12 -11
0 -8 -5 -7 -15 1 -9 7 -13 15 -10 18 3 3 -5 17 -18 31 -27 29 -39 56 -30 65
14 14 36 4 78 -35z m952 -57 c-28 -30 -38 -55 -11 -28 14 15 18 14 38 -16 28
-42 76 -49 118 -18 39 29 48 18 13 -14 -23 -21 -38 -26 -82 -26 -34 0 -52 -4
-48 -10 3 -5 24 -10 46 -10 42 0 47 -19 6 -21 -18 -1 -19 -2 -4 -6 26 -7 92
40 107 76 16 40 40 41 40 1 0 -29 23 -62 51 -73 12 -5 12 -7 0 -15 -9 -6 -10
-12 -2 -16 6 -4 16 2 23 14 20 31 29 24 13 -12 -7 -18 -17 -31 -21 -30 -11 6
-24 -20 -23 -48 l0 -25 15 28 c16 30 26 33 43 13 9 -11 9 -15 -1 -18 -18 -7 8
-38 32 -38 10 0 23 -7 30 -15 7 -8 21 -15 31 -15 27 0 37 -47 14 -68 -17 -16
-17 -16 -11 2 5 16 4 17 -9 6 -8 -7 -15 -19 -15 -26 0 -8 -6 -11 -17 -7 -22 8
-17 2 19 -20 22 -14 26 -14 22 -3 -4 11 1 14 18 12 36 -4 50 -16 44 -39 -4
-15 -2 -17 7 -8 21 21 27 11 20 -34 -4 -31 -2 -45 6 -45 6 0 11 -6 11 -13 0
-9 10 -12 31 -9 40 6 31 -13 -14 -32 l-32 -13 31 -7 c27 -6 31 -11 26 -29 -7
-28 -20 -37 -56 -37 -25 0 -27 -2 -15 -16 10 -12 24 -15 57 -10 40 5 43 4 38
-14 -3 -11 -9 -30 -12 -42 -4 -13 -15 -35 -25 -50 -11 -14 -19 -34 -19 -45 1
-11 8 -5 21 20 11 20 22 37 25 37 9 0 -8 -43 -27 -72 -23 -32 -136 -111 -152
-105 -6 2 5 13 24 25 20 12 44 31 55 43 l19 22 -30 -19 c-52 -32 -95 -72 -82
-77 23 -8 -4 -21 -41 -19 -76 4 -123 25 -148 64 -42 66 -98 91 -88 39 9 -42
-11 -71 -47 -71 -22 0 -39 -9 -57 -30 -22 -25 -34 -30 -72 -30 -40 0 -49 4
-68 30 -13 17 -18 30 -13 30 6 0 8 7 4 16 -3 8 4 29 16 45 21 28 22 34 10 79
-7 27 -16 47 -21 44 -4 -3 -6 1 -3 8 2 7 6 51 9 98 3 47 5 86 6 88 0 2 6 2 13
1 6 -1 25 -1 40 0 35 1 32 23 -4 31 -15 3 -30 18 -38 38 -17 38 -31 42 -31 8
0 -45 -52 -65 -128 -50 -40 8 -119 74 -101 84 16 10 -13 25 -64 33 -33 5 -41
2 -72 -30 -38 -39 -58 -39 -32 1 11 16 13 26 6 28 -16 5 48 106 72 113 10 4
19 13 19 21 0 8 3 13 8 13 24 -4 52 3 52 12 0 7 -10 9 -25 7 -17 -4 -25 -1
-25 9 0 9 -6 13 -14 10 -26 -10 -26 5 -1 35 14 16 25 34 25 39 0 5 18 -1 40
-12 47 -25 86 -19 124 16 30 28 34 69 10 96 -13 14 -20 15 -34 7 -23 -15 -50
-4 -50 20 0 32 24 45 63 34 26 -7 42 -6 65 5 30 15 32 14 55 -12 20 -24 28
-27 59 -21 35 6 41 14 61 78 5 14 44 29 56 21 3 -2 -8 -16 -22 -31z m-1098
-33 c18 -20 18 -22 3 -49 -13 -22 -20 -26 -30 -18 -11 9 -11 7 -2 -13 9 -19 7
-33 -6 -64 l-16 -39 -14 27 c-8 15 -19 27 -25 27 -6 0 -9 15 -7 33 2 23 8 32
21 31 12 -1 17 5 17 22 0 18 -6 24 -21 24 -28 0 -19 23 12 31 40 11 47 10 68
-12z m2159 -1 c13 -11 11 -13 -9 -18 -33 -8 -39 -47 -7 -46 19 1 24 -5 26 -31
2 -24 -1 -33 -12 -33 -9 0 -18 -11 -22 -25 -9 -35 -17 -31 -38 15 -14 33 -15
44 -5 56 10 12 10 15 -1 12 -8 -2 -20 10 -28 25 -12 25 -12 31 4 49 20 21 63
19 92 -4z m-1438 -23 c0 -40 36 -71 72 -62 35 10 49 -9 32 -42 -19 -38 -39
-54 -61 -49 -14 3 -12 7 13 21 29 15 50 44 40 54 -2 3 -7 -5 -11 -16 -15 -49
-127 -5 -133 52 -4 29 21 77 38 77 6 0 10 -16 10 -35z m-301 -16 c37 -13 39
-22 9 -43 -12 -9 -17 -16 -11 -16 7 0 14 4 17 8 7 12 74 2 87 -14 6 -8 22 -14
35 -14 13 0 24 -4 24 -10 0 -5 12 -9 28 -9 17 1 21 3 9 6 -14 4 -16 8 -6 19
20 24 36 16 37 -18 1 -37 -22 -68 -51 -68 -12 0 -17 -5 -14 -14 3 -7 -1 -24
-10 -36 -14 -19 -21 -21 -61 -15 l-45 7 6 -36 c3 -20 2 -36 -3 -36 -4 0 -11
-16 -14 -35 -4 -20 -16 -39 -27 -46 -12 -6 -18 -13 -15 -16 3 -4 -1 -15 -11
-25 -9 -10 -17 -28 -19 -41 -1 -12 -3 -24 -3 -26 -1 -3 -12 6 -26 19 -15 14
-25 35 -25 52 0 21 -5 28 -20 28 -17 0 -20 7 -20 48 1 37 7 54 30 82 37 43 37
52 3 48 -17 -2 -27 2 -26 8 1 7 -17 17 -40 23 -70 18 -77 27 -43 57 26 23 29
24 41 8 9 -14 21 -16 55 -10 23 4 52 12 64 18 11 7 24 11 29 10 4 -1 7 3 7 8
0 13 -6 13 -41 -6 -17 -8 -33 -13 -36 -10 -3 2 12 14 34 25 21 11 34 20 30 21
-4 0 -29 -11 -55 -25 -62 -33 -72 -32 -68 5 5 41 10 45 66 45 26 0 43 3 38 6
-6 4 -7 12 -4 18 9 13 6 13 45 0z m1330 -80 c20 -7 46 -16 58 -22 12 -5 32 -7
45 -4 18 5 31 -1 52 -23 15 -17 40 -33 54 -36 68 -14 75 -21 68 -67 -10 -62
-27 -75 -64 -49 l-29 21 3 -26 c3 -31 19 -43 57 -43 26 0 28 -3 23 -28 -4 -17
-1 -35 8 -47 20 -27 20 -35 -2 -35 -26 0 -33 -9 -20 -30 9 -13 7 -23 -5 -41
-10 -13 -17 -31 -17 -41 0 -27 -20 -32 -36 -9 -8 11 -30 23 -49 27 -31 5 -35
10 -33 33 3 22 0 26 -22 24 -47 -5 -83 42 -69 91 5 17 9 40 9 51 0 18 -2 17
-25 -8 -14 -15 -31 -28 -38 -29 -7 0 -17 -2 -23 -2 -6 -1 -18 -7 -27 -15 -14
-11 -22 -7 -57 29 -39 40 -40 43 -28 76 6 19 15 34 19 34 4 0 24 15 43 34 33
31 36 38 36 90 0 62 4 65 69 45z m-989 -454 c28 -18 40 -32 40 -49 0 -34 -18
-44 -90 -51 -62 -6 -67 -5 -108 25 -24 18 -41 37 -39 44 5 18 89 56 124 56 19
0 51 -11 73 -25z m1090 1 c0 -8 10 -18 21 -21 18 -6 21 -13 16 -46 -3 -22 -1
-37 4 -33 5 3 9 17 9 30 0 16 5 24 13 21 17 -6 11 -70 -15 -147 -12 -36 -23
-67 -23 -70 -14 -57 -18 -64 -26 -45 -7 18 -8 18 -8 2 -1 -10 6 -26 15 -34 10
-10 13 -24 9 -37 -4 -12 -7 -27 -7 -33 -1 -9 -12 -6 -35 8 -18 12 -40 19 -47
16 -14 -6 -26 52 -26 122 l1 36 14 -26 c16 -29 37 -41 58 -33 12 4 53 64 44
64 -2 0 -1 18 3 40 8 44 0 59 -20 35 -7 -8 -23 -15 -35 -15 -22 0 -22 2 -12
29 8 22 7 39 -3 71 -13 41 -13 43 9 61 28 23 41 24 41 5z m-984 -134 c6 -4 13
-23 17 -42 3 -19 8 -43 12 -52 4 -11 3 -18 -4 -18 -21 0 -77 -43 -93 -71 -9
-15 -36 -37 -59 -48 -48 -24 -49 -24 -49 -13 0 4 15 14 33 22 l32 15 -29 3
c-16 2 -32 -1 -35 -6 -3 -5 -15 -12 -26 -14 -11 -2 -19 -10 -18 -16 4 -15 1
-15 -33 -2 -22 9 -25 8 -16 -3 7 -8 8 -17 1 -27 -9 -13 -12 -12 -22 4 -7 11
-30 37 -52 58 -22 21 -35 38 -30 38 6 0 17 -6 25 -12 8 -7 2 2 -14 20 -34 36
-38 39 -29 16 5 -14 3 -15 -15 -5 -12 7 -22 19 -22 27 0 8 5 12 10 9 6 -3 10
1 10 9 0 9 4 16 9 16 5 0 18 16 30 35 14 25 27 35 45 35 13 0 26 4 28 10 2 6
16 6 41 -1 39 -11 48 -25 20 -32 -10 -2 2 -2 27 0 43 4 44 4 25 -12 -11 -9 14
1 55 23 75 40 106 48 126 34z m814 -247 c-10 -46 10 -95 39 -95 35 0 51 12 51
36 0 35 29 43 52 15 22 -28 25 -66 4 -58 -9 4 -16 -3 -20 -19 -8 -29 -20 -30
-53 -4 -14 11 -33 20 -42 20 -9 -1 -1 -7 17 -15 36 -16 50 -41 33 -58 -8 -8
-11 -7 -11 3 -1 8 -7 2 -14 -15 -15 -35 -13 -43 9 -25 10 8 15 9 15 2 0 -18
-36 -32 -82 -32 -36 0 -50 6 -72 29 -27 28 -28 34 -24 100 2 39 9 76 16 83 19
19 21 7 9 -45 -10 -43 -9 -49 13 -72 13 -14 20 -28 16 -32 -4 -5 -14 1 -22 11
-8 11 -14 15 -14 8 0 -6 12 -19 26 -29 53 -34 82 24 37 77 -20 24 -23 36 -17
67 7 39 32 98 39 91 2 -2 0 -21 -5 -43z m-1190 -42 c0 -10 -19 -36 -43 -58
-24 -22 -34 -33 -23 -25 12 8 36 28 54 45 l34 30 -8 -40 c-8 -49 -16 -64 -46
-91 -27 -25 -78 -40 -78 -24 0 6 5 8 10 5 6 -4 10 5 9 22 -1 17 -3 21 -6 11
-7 -27 -23 -22 -23 7 0 14 14 41 33 62 19 21 37 46 40 56 4 9 16 17 27 17 12
0 20 -7 20 -17z m851 -33 c51 -14 123 -80 137 -126 6 -20 9 -41 6 -46 -3 -4 2
-8 10 -8 9 0 16 -9 16 -20 0 -26 -14 -25 -37 3 -10 12 -30 31 -43 42 -14 11
-19 13 -12 5 17 -19 15 -33 -3 -26 -8 3 -15 1 -15 -3 0 -5 5 -11 11 -13 15 -5
-6 -48 -22 -48 -6 0 -31 18 -56 40 -48 42 -82 50 -107 25 -19 -19 -57 -19
-101 -1 -39 17 -47 31 -12 21 15 -4 11 0 -11 15 -29 17 -32 23 -21 36 8 9 25
14 45 12 48 -4 52 8 10 33 -22 12 -36 29 -36 40 0 18 5 19 53 14 38 -5 48 -4
37 4 -20 14 101 15 151 1z m-411 -21 c12 -19 6 -25 -45 -39 -44 -12 -63 -26
-52 -36 3 -3 28 5 57 17 46 20 53 20 67 7 26 -26 8 -57 -38 -64 -54 -9 -64
-28 -10 -20 23 3 46 8 52 11 17 11 37 -9 29 -30 -6 -17 -18 -21 -65 -23 -70
-3 -102 -21 -150 -83 -20 -26 -46 -49 -58 -51 -12 -2 -22 -8 -22 -15 0 -20
-18 -30 -62 -36 -52 -6 -83 13 -83 51 0 38 14 55 38 48 11 -4 22 -19 26 -37 6
-31 39 -51 66 -40 12 4 12 6 -2 9 -15 3 -14 7 7 30 14 15 25 32 25 38 0 6 12
23 27 38 18 18 21 24 9 20 -10 -4 -29 -18 -42 -30 -29 -30 -64 -32 -59 -4 5
24 51 87 74 100 9 4 13 11 10 15 -4 3 -20 -6 -37 -20 -38 -32 -42 -31 -43 3
-1 20 -2 22 -6 7 -7 -29 -33 -55 -56 -55 -16 0 -17 3 -7 15 7 8 9 15 4 15 -4
0 7 16 26 35 18 19 30 38 26 42 -4 5 -16 -3 -27 -16 -14 -17 -19 -19 -19 -7 0
13 -5 14 -27 5 -32 -12 -73 -55 -73 -76 0 -8 -4 -11 -10 -8 -23 14 -9 64 30
110 22 25 40 51 40 56 0 6 5 7 11 4 5 -4 9 -18 7 -33 -4 -37 15 -37 55 1 35
32 82 49 172 61 53 7 127 -1 135 -15z m-525 -159 c33 0 32 -23 -1 -63 -24 -29
-26 -36 -20 -94 l7 -63 -30 0 c-74 0 -96 113 -40 198 l31 47 -31 -35 c-37 -43
-41 -32 -5 15 25 33 26 33 45 14 10 -10 30 -19 44 -19z m697 -26 c20 -10 44
-14 66 -10 38 6 59 -3 114 -47 42 -34 54 -57 36 -69 -18 -11 -30 -10 -23 2 14
22 -179 81 -259 79 l-51 -2 40 -6 40 -6 -40 -8 c-22 -4 -53 -6 -70 -6 l-30 1
30 9 c29 8 29 8 -5 4 -19 -3 -52 -8 -74 -11 l-38 -7 17 27 c14 21 25 26 59 27
22 0 64 9 91 19 63 23 60 23 97 4z m643 -33 c35 -42 44 -65 45 -104 0 -38 -18
-63 -66 -95 -11 -7 -6 -6 11 2 36 17 60 42 69 73 9 29 -12 91 -41 122 -13 13
-21 27 -17 30 10 10 64 -62 76 -101 9 -31 8 -46 -8 -90 -16 -46 -26 -57 -66
-78 -41 -21 -51 -23 -78 -13 -16 6 -28 7 -24 2 3 -5 -2 -9 -11 -9 -11 0 -15 5
-12 14 3 8 -1 20 -9 26 -8 7 -14 9 -14 4 0 -5 -9 5 -20 21 -25 38 -26 23 -1
-19 10 -17 29 -72 42 -122 22 -88 22 -93 7 -170 -21 -106 -52 -175 -107 -240
-47 -54 -141 -134 -159 -134 -5 0 -15 -7 -22 -15 -6 -8 -69 -33 -138 -57 -112
-37 -137 -42 -215 -41 -95 0 -108 -5 -31 -13 66 -8 69 -14 7 -14 -53 0 -178
33 -188 50 -9 14 10 12 52 -5 19 -8 43 -15 52 -14 9 0 0 6 -19 14 -19 7 -34
17 -33 23 1 5 -7 12 -17 15 -11 3 -17 1 -14 -4 12 -20 -72 23 -106 54 -19 18
-37 33 -39 34 -2 2 -2 5 1 8 3 3 27 -12 54 -33 27 -21 56 -42 64 -46 23 -11
-40 41 -85 71 -22 15 -53 38 -69 52 -25 23 -27 23 -18 5 6 -11 32 -44 57 -72
26 -29 42 -52 35 -52 -18 0 -117 98 -134 133 -9 18 -32 59 -51 92 -55 94 -68
135 -45 135 6 0 10 -11 10 -25 0 -14 4 -25 10 -25 5 0 16 -12 24 -27 20 -36
20 -28 -1 49 -9 37 -16 96 -15 141 1 69 -1 78 -15 73 -14 -6 -14 -4 -2 10 8 9
14 22 14 28 3 46 56 160 79 169 22 9 39 -19 32 -50 -39 -161 -40 -246 -5 -357
32 -104 67 -158 156 -238 79 -73 164 -102 298 -103 78 0 100 4 160 29 82 35
180 90 213 120 26 23 56 77 78 138 15 42 9 53 -7 12 -5 -15 -12 -24 -15 -21
-8 7 18 77 28 77 4 0 8 -5 8 -12 0 -6 3 -9 6 -6 3 3 -1 15 -8 27 -10 17 -10
25 -1 41 8 12 9 21 3 25 -6 3 -10 24 -10 47 0 37 2 40 24 34 21 -5 23 -3 19
15 -4 16 -8 18 -14 7 -6 -8 -7 -2 -3 17 4 21 -4 52 -26 104 -36 84 -42 134
-18 157 14 15 18 13 44 -19 l27 -35 16 31 c21 41 63 57 99 36 37 -20 42 -66
10 -78 -14 -5 -28 -5 -35 1 -7 6 -13 7 -14 2 0 -5 -4 0 -9 11 -8 19 -9 19 -9
-3 -2 -40 15 -60 46 -54 43 7 73 40 73 78 0 39 -47 99 -85 108 -18 5 -25 13
-25 31 0 21 5 24 43 27 50 4 56 1 82 -31z m-877 -101 c15 -11 43 -19 62 -19
132 1 247 5 255 11 22 13 71 17 85 8 13 -9 11 -13 -10 -31 -14 -11 -36 -30
-48 -40 -14 -12 -31 -18 -40 -14 -26 10 -226 7 -253 -4 -20 -8 -21 -10 -4 -10
14 -1 16 -4 8 -12 -9 -9 -20 -9 -44 0 -24 8 -35 8 -40 0 -4 -7 -11 -6 -20 5
-8 9 -20 23 -27 31 -7 8 -10 19 -7 25 3 5 1 10 -4 10 -22 0 -10 21 22 40 39
24 32 24 65 0z m243 -223 c47 -25 78 -72 89 -137 5 -29 10 -35 28 -33 27 3 27
0 2 -51 -18 -37 -67 -79 -113 -98 -17 -7 -17 -6 1 25 32 50 45 115 33 162
l-11 40 5 -41 c4 -33 -1 -50 -24 -87 -26 -40 -56 -67 -76 -67 -3 0 7 12 23 28
15 15 19 19 7 10 -26 -21 -88 -33 -110 -20 -14 7 -9 11 27 20 60 15 90 49 95
109 4 39 1 53 -17 76 -12 15 -31 27 -42 27 l-21 0 21 -23 c12 -13 22 -36 22
-51 0 -32 -40 -76 -71 -76 -19 0 -19 2 10 29 36 34 38 55 12 95 -11 17 -18 33
-15 38 3 4 -2 5 -11 2 -8 -4 -20 -15 -26 -25 -8 -16 -6 -19 15 -19 33 0 51
-32 35 -62 -16 -32 -28 -38 -71 -38 -34 0 -39 4 -56 38 -10 21 -18 48 -17 60
1 12 -2 19 -7 16 -4 -3 -8 2 -8 10 0 9 5 16 12 16 6 0 22 10 35 22 13 12 23
17 23 11 0 -5 -9 -18 -20 -28 -11 -10 -20 -25 -20 -34 0 -9 8 -3 19 15 39 64
141 83 222 41z m324 -63 c21 -22 14 -39 -16 -39 -32 0 -42 -16 -23 -36 17 -18
47 -15 65 7 17 21 27 17 27 -10 0 -32 -49 -60 -90 -52 -39 8 -58 23 -58 47 0
11 -4 19 -10 19 -20 0 -9 29 21 54 35 30 61 33 84 10z m-576 -217 c20 -21 55
-50 79 -64 85 -50 229 -15 324 80 21 20 38 46 38 57 0 26 3 25 38 -9 16 -16
45 -33 65 -36 21 -4 37 -13 37 -20 0 -25 -95 -152 -148 -199 -156 -136 -341
-136 -529 1 -47 35 -73 63 -99 110 -34 62 -67 143 -61 150 2 2 18 -2 35 -8 37
-13 90 1 117 31 18 20 19 19 43 -17 14 -21 41 -55 61 -76z"/>
<path d="M2373 2265 c-78 -21 -123 -42 -123 -58 0 -21 -34 -47 -62 -47 -43 0
-138 49 -138 71 0 24 -27 25 -35 0 -8 -26 1 -45 35 -69 26 -20 28 -24 17 -52
-16 -43 -2 -53 53 -34 33 11 46 12 48 4 3 -7 22 5 46 28 47 46 84 55 166 40
52 -9 100 -39 100 -62 0 -35 -152 -70 -201 -47 -23 11 -23 11 -5 -3 24 -19
119 -20 186 -3 33 9 48 19 58 40 7 15 17 27 23 27 5 0 9 11 9 25 0 14 -4 25
-9 25 -5 0 -21 16 -36 36 -26 33 -26 36 -9 48 16 13 16 15 -14 30 -37 19 -41
19 -109 1z"/>
</g>
</svg>
